<svg width="2000" height="2000" xmlns="http://www.w3.org/2000/svg">
    <circle cx="550" cy="500" r="180"  stroke-width="black" fill="orange" /> // principal
    <ellipse rx="50" ry="100" cx="495" cy="350" fill="orange" stroke-width="3" /> // orelha
    <ellipse rx="50" ry="100" cx="590" cy="350" fill="orange" stroke-width="3" /> // orelha
    <circle cx="430" cy="555" r="100"  stroke-width="black" fill="orange"/> // bochecha
    <circle cx="675" cy="555" r="100"  stroke-width="3" fill="orange"/> // bochecha
    <circle cx="400" cy="450" r="45"  stroke="black" stroke-width="3" fill="orange"/> // bochecha pequena bolinha
    <circle cx="500" cy="500" r="100"  stroke="black" stroke-width="3" fill="#fbe5a3"/> //bochecha pequena
    <circle cx="600" cy="500" r="100"  stroke="black" stroke-width="3" fill="#fbe5a3"/> //bochecha pequena
    <circle cx="550" cy="450" r="130"  stroke="black" stroke-width="3" fill="orange"/> // olho
    <line x1="550" y1="580" x2="550" y2="320" stroke="black" stroke-width="3"/>


    //aqui começa o pé
    <ellipse rx="145" ry="60" cx="1085" cy="1390" fill="orange" stroke-width="3" /> // pé
    <circle cx="997" cy="1399" r="55"  stroke-width="black" fill="orange"/> // dedao
    <circle cx="1025" cy="1410" r="50"  stroke-width="black" fill="orange"/> // dedo do meio
    <circle cx="1060" cy="1415" r="50"  stroke-width="black" fill="orange"/> // dedinho
    <ellipse rx="145" ry="60" cx="1340" cy="1170" fill="orange" stroke-width="3" transform="rotate(10)" /> // pé parte cima
    //aqui acaba o pé
    <ellipse rx="145" ry="60" cx="1190" cy="1400" fill="orange" stroke-width="3" /> // pé2
    <circle cx="1098" cy="1410" r="55"  stroke-width="black" fill="orange"/> // dedao2
    <circle cx="1104" cy="1410" r="50"  stroke-width="black" fill="orange"/> // dedo do meio2
    <circle cx="1150" cy="1420" r="50"  stroke-width="black" fill="orange"/> // dedinho2
    <ellipse rx="145" ry="60" cx="1440" cy="1170" fill="orange" stroke-width="3" transform="rotate(10)" /> // pé parte cima2
    <rect width="200" height="100" x="1182" y="1435" rx="20" ry="20" fill="white" />
    

    
</svg>