<svg width="2000" height="1500" xmlns="http://www.w3.org/2000/svg">

<rect width="20" height="200" x="1220" y="580" 
style="fill:rgb(255,246,142);stroke-width:3;stroke:black" /> <!--perna-->

  <ellipse cx="1230" cy="800" rx="40" ry="20"
  style="fill:rgb(255,246,142);stroke:black;stroke-width:4" />
  <ellipse cx="880" cy="1150" rx="30" ry="15" transform="rotate(-20)" 
  style="fill:rgb(255,246,142);stroke:black;stroke-width:4" />
  <ellipse cx="1250" cy="790" rx="25" ry="30"
  style="fill:rgb(255,246,142);stroke:black;stroke-width:3" />
  <ellipse cx="1232" cy="799" rx="39" ry="20"
  style="fill:rgb(255,246,142)" /> <!--pé um do ody-->

<ellipse cx="1256" cy="800" rx="2" ry="20" fill="black" /> <!--listra do pé do ody-->

<rect width="20" height="200" x="1180" y="580" 
style="fill:rgb(255,246,142);stroke-width:3;stroke:black" /> <!--perna-->

  <ellipse cx="1200" cy="800" rx="40" ry="20"
  style="fill:rgb(255,246,142);stroke:black;stroke-width:4" />
  <ellipse cx="850" cy="1150" rx="30" ry="15" transform="rotate(-20)" 
  style="fill:rgb(255,246,142);stroke:black;stroke-width:4" />
  <ellipse cx="1220" cy="790" rx="25" ry="30"
  style="fill:rgb(255,246,142);stroke:black;stroke-width:3" />
  <ellipse cx="1202" cy="799" rx="39" ry="20"
  style="fill:rgb(255,246,142)" /> <!--pé dois do ody-->

<ellipse cx="1216" cy="800" rx="2" ry="20" fill="black" /> <!--listra do pé do ody-->

  <defs>
      <linearGradient id="grad1" x1="0%" x2="100%" y1="0%" y2="0%">
        <stop offset="40%" stop-color="rgb(250,164,27)" />
        <stop offset="60%" stop-color="rgb(255,246,142)" />
      </linearGradient>
    </defs>
    <ellipse cx="1050" cy="500" rx="250" ry="120" 
    style="fill:url(#grad1);stroke:black;stroke-width:3" /> <!--ellipse principal do corpo-->

  <ellipse cx="1100" cy="535" rx="30" ry="15" fill="rgb(162,50,12)" />  <!--bolinha para trás da ellipse branca-->

  <ellipse cx="1050" cy="435" rx="220" ry="100"
  style="fill:white;stroke:black;stroke-width:3" /> 
  <ellipse cx="1050" cy="430" rx="222" ry="100"
  style="fill:white;stroke:white;stroke-width:3" /> <!--ellipses brancas-->

  <ellipse cx="950" cy="560" rx="30" ry="15" fill="rgb(162,50,12)" /> <!--bolinha dentro do corpo-->

  <ellipse cx="1065" cy="610" rx="60" ry="7" fill="rgb(162,50,12)" />
  <ellipse cx="1000" cy="900" rx="20" ry="10" fill="rgb(162,50,12)" transform="rotate(-19)" />
  <ellipse cx="1000" cy="220" rx="20" ry="10" fill="rgb(162,50,12)" transform="rotate(20)" />  <!--mais bolinhas-->

<g transform="translate(550, 150) scale(0.5)">
    <circle cx="550" cy="500" r="180" stroke="black" stroke-width="5.5" fill="black" /> // circulo principal


    <circle cx="650" cy="555" r="100"  stroke="black" stroke-width="6" fill="orange"/> // bochecha
    <circle cx="450" cy="555" r="100"  stroke="black" stroke-width="6" fill="orange"/> // bochecha

    <circle cx="550" cy="500" r="180" fill="orange" stroke-width="6"/> // circulo para sobrepor a 

    <ellipse rx="50" ry="100" cx="495" cy="350" fill="orange" stroke="black" stroke-width="6" /> // orelha de fora
    <ellipse rx="50" ry="100" cx="590" cy="350" fill="orange" stroke="black" stroke-width="6" /> // orelha de fora

    <ellipse rx="40" ry="80" cx="600" cy="340" fill="darkorange" stroke="black" stroke-width="5" /> // parte de dentro da orelha
    <ellipse rx="40" ry="80" cx="484" cy="340" fill="darkorange" stroke="black" stroke-width="5" /> // parte de dentro da orelha

    // linhas de sombra da orelha (esquerda)
    <line x1="480" y1="260" x2="453" y2="305" stroke="black" stroke-width="5"/>
    <line x1="480" y1="260" x2="465" y2="315" stroke="black" stroke-width="5"/>
    <line x1="480" y1="260" x2="485" y2="300" stroke="black" stroke-width="5"/>
    <line x1="480" y1="260" x2="500" y2="315" stroke="black" stroke-width="5"/>
    <line x1="480" y1="260" x2="510" y2="300" stroke="black" stroke-width="5"/>

    // linhas de sombra da orelha (direita)
    <line x1="605" y1="260" x2="575" y2="305" stroke="black" stroke-width="5"/>
    <line x1="605" y1="260" x2="584" y2="315" stroke="black" stroke-width="5"/>
    <line x1="605" y1="260" x2="601" y2="300" stroke="black" stroke-width="5"/>
    <line x1="605" y1="260" x2="616" y2="315" stroke="black" stroke-width="5"/>
    <line x1="605" y1="260" x2="625" y2="300" stroke="black" stroke-width="5"/>

    <circle cx="400" cy="460" r="45"  stroke="black" stroke-width="5" fill="#fbe5a3"/> // bochecha
    <circle cx="700" cy="460" r="45"  stroke="black" stroke-width="5" fill="#fbe5a3"/> // bochecha

    // Detalhes da bochecha pequena (esquerda)
    <circle cx="400" cy="430" r="3.26"  stroke="black" stroke-width="3" fill="black"/> 
    <circle cx="375" cy="450" r="3.5"  stroke="black" stroke-width="3" fill="black"/>
    <circle cx="375" cy="480" r="3.8"  stroke="black" stroke-width="3" fill="black"/>

    // Detalhes da bochecha pequena (direita)
    <circle cx="700" cy="430" r="3.2"  stroke="black" stroke-width="3" fill="black"/> 
    <circle cx="730" cy="450" r="3.6"  stroke="black" stroke-width="3" fill="black"/> 
    <circle cx="720" cy="480" r="3.7"  stroke="black" stroke-width="3" fill="black"/> 

    <circle cx="500" cy="500" r="100"  stroke="black" stroke-width="4" fill="#fbe5a3"/> //bochecha pequena
    <circle cx="600" cy="500" r="100"  stroke="black" stroke-width="4" fill="#fbe5a3"/> //bochecha pequena

    // linhas para esconder o contorno das bochechas
    <polyline points="740,470 640,470 640 390" fill="#fbe5a3" />
    <polyline points="390,470 450,470 450 390" fill="#fbe5a3" />

    <circle cx="550" cy="450" r="130"  stroke="black" stroke-width="3" fill="orange"/> // olho

    <polyline points="430,510 665,510 598 570 502 570" fill="white" />

    <ellipse transform="rotate(127 480 545)" rx="10" ry="50" cx="480" cy="545" fill="white"/>

    <ellipse transform="rotate(-127 620 545)" rx="10" ry="50" cx="620" cy="545" fill="white"/>
    
    <circle cx="515" cy="515" r="20"  stroke="black" stroke-width="3" fill="black"/>

    <circle cx="585" cy="515" r="20"  stroke="black" stroke-width="3" fill="black"/>

    <polyline points="475,508 665,508 450 400" fill="orange" />

    <line x1="550" y1="580" x2="550" y2="340" stroke="black" stroke-width="3"/> // linha do meio do olho

    <line x1="435" y1="510" x2="664" y2="510" stroke="black" stroke-width="3"/> // linha da pálpebra

    <ellipse rx="35" ry="20" cx="550" cy="575" fill="pink" stroke="black" stroke-width="3" /> // nariz
</g>

<g transform="translate(450, 200) scale(0.5)">
  <rect width="120" height="210" x="1600" y="500" rx="20" ry="20" 
    style="fill:khaki;stroke:black;stroke-width:3;" /> 

  <rect width="90" height="200" x="1615.5" y="500" rx="20" ry="20" 
    style="fill:black;stroke:black;stroke-width:3;" /> 

  <ellipse rx = "42" ry = "36" cx = "1560" cy = "345"
    style = "fill: khaki; stroke: black; stroke-width: 3" />       <!-- buchecha esquerda -->

  <ellipse rx = "42" ry = "36" cx = "1782" cy = "355"
    style = "fill: khaki; stroke: black; stroke-width: 3" />       <!-- buchecha direita -->  

  <ellipse rx="145" ry="95 " cx="1670" cy="430"
    style="fill:khaki;stroke:black;stroke-width:2.5" />            <!-- rosto -->

  <rect width="52" height="200" x="1600" y="200" rx="20" ry="20" 
    style="fill:rgb(135, 43, 5);stroke:black;stroke-width:3;"
    transform="rotate(-13 950 210)" />                             <!-- orelha esquerda (haste)--> 

  <rect width="52" height="200" x="1600" y="200" rx="20" ry="20" 
    style="fill:rgb(135, 43, 5);stroke:black;stroke-width:3;"
    transform="rotate(13 2300 560)" />                             <!-- orelha direita (haste)--> 

  <ellipse  rx="80" ry="55" cx="1580" cy="112" 
    style = "fill:rgb(135, 43, 5); stroke: black; stroke-width: 2.5"                         
    transform = "rotate(-50 1580 112)" />                          <!-- orelha esquerda (bola) -->

  <ellipse  rx="80" ry="55" cx="1755" cy="110" 
    style = "fill:rgb(135, 43, 5); stroke: black; stroke-width: 2.5"                         
    transform = "rotate(-127 1755 115)" />                          <!-- orelha direita (bola) -->  

  <ellipse rx="70" ry="110" cx="1620" cy="300"
    style="fill:white;stroke:black; stroke-width:3" />            <!-- olho esquerdo-->
  <ellipse rx="69" ry="110" cx="1724" cy="300"
    style="fill:white;stroke:black; stroke-width:3" />            <!-- olho direito-->

  <ellipse rx="52.5" ry="32.5" cx="1676" cy="410"
    style="fill:black;stroke:black; stroke-width:2" />            <!-- nariz -->

  <ellipse rx="5" ry="10" cx="1650" cy="350" 
    style="fill:black;stroke:black; stroke-width:3" />           <!-- pupila esquerda -->

  <ellipse rx="5" ry="10" cx="1700" cy="350"
    style="fill:black;stroke:black; stroke-width:3" />           <!-- pupila direita -->

  <circle r="55" cx="1790" cy="655" fill="rgb(240,40,80)" />   <!-- lingua -->

  <rect width="70" height="180" x="1842" y="616" rx="80" ry="80" 
    style="fill:rgb(240,40,80);stroke:rgb(240,40,80);stroke-width:3;"
    transform="rotate(112 1842 616)" />
</g>

    <g transform="translate(300, 110) scale(0.5)">
    //aqui começa o pé
        <ellipse rx="145" ry="60" cx="1085" cy="1399" fill="orange" stroke="black" stroke-width="3" /> // pé
        <circle cx="997" cy="1399" r="55"  stroke="black" stroke-width="3" fill="orange"/> // dedao
        <ellipse rx="145" ry="60" cx="1344" cy="1175" fill="orange" stroke="black" stroke-width="3" transform="rotate(10)" /> // pé parte cima
        <ellipse rx="30" ry="60" cx="997" cy="1406" fill="orange" stroke="black" stroke-width="3"/>
        <rect width="165" height="30" x="997" y="1424" rx="20" ry="20" fill="orange" /> //cobertura
        <ellipse rx="30" ry="60" cx="1027" cy="1406" fill="orange" stroke="black" stroke-width="3"/>
        <rect width="165" height="30" x="997" y="1340" rx="20" ry="20" fill="orange" /> //cobertura
        <rect width="60" height="400" x="1090" y="945" rx="20" ry="20" fill="orange" stroke="black" stroke-width="3" /> // perna
        <rect width="80" height="60" x="1087" y="1325" rx="20" ry="20" fill="orange" /> //cobertura canela
        

        <ellipse rx="145" ry="60" cx="1185" cy="1399" fill="orange" stroke="black" stroke-width="3" /> // pé
        <circle cx="1093" cy="1404" r="57"  stroke="black" stroke-width="3" fill="orange"/> // dedao
        <rect width="60" height="435" x="1290" y="945" rx="20" ry="20" fill="orange" stroke="black" stroke-width="3" /> // perna
        <ellipse rx="145" ry="60" cx="1430" cy="1175" fill="orange" stroke="black" stroke-width="3" transform="rotate(9)" /> // pé parte cima
        <rect width="80" height="60" x="1268" y="1340" rx="20" ry="20" fill="orange" /> //cobertura canela
        <ellipse rx="30" ry="60" cx="1097" cy="1406" fill="orange" stroke="black" stroke-width="3"/>
        <ellipse rx="30" ry="60" cx="1127" cy="1406" fill="orange" stroke="black" stroke-width="3"/>
        <rect width="115" height="60" x="1160" y="1389" rx="20" ry="20" fill="orange" /> //cobertura sola
        <rect width="50" height="100" x="1111" y="1350" rx="20" ry="20" fill="orange" /> //cobertura dedo
    </g>
</svg>